<?xml version="1.0" standalone="no"?><svg xmlns="http://www.w3.org/2000/svg" viewBox="0 0 1440 320"><path fill="#FFB833" fill-opacity="1" d="M0,0L26.7,42.7C53.3,85,107,171,160,186.7C213.3,203,267,149,320,154.7C373.3,160,427,224,480,218.7C533.3,213,587,139,640,90.7C693.3,43,747,21,800,26.7C853.3,32,907,64,960,96C1013.3,128,1067,160,1120,160C1173.3,160,1227,128,1280,106.7C1333.3,85,1387,75,1413,69.3L1440,64L1440,320L1413.3,320C1386.7,320,1333,320,1280,320C1226.7,320,1173,320,1120,320C1066.7,320,1013,320,960,320C906.7,320,853,320,800,320C746.7,320,693,320,640,320C586.7,320,533,320,480,320C426.7,320,373,320,320,320C266.7,320,213,320,160,320C106.7,320,53,320,27,320L0,320Z"></path></svg>